<?xml version="1.0" encoding="UTF-8" standalone="no"?>
<!DOCTYPE svg PUBLIC "-//W3C//DTD SVG 1.1//EN"
 "http://www.w3.org/Graphics/SVG/1.1/DTD/svg11.dtd">
<!-- Generated by graphviz version 2.46.1 (20210222.2046)
 -->
<!-- Title: snakemake_dag Pages: 1 -->
<svg width="458pt" height="311pt"
 viewBox="0.00 0.00 458.00 311.00" xmlns="http://www.w3.org/2000/svg" xmlns:xlink="http://www.w3.org/1999/xlink">
<g id="graph0" class="graph" transform="scale(1 1) rotate(0) translate(4 307)">
<title>snakemake_dag</title>
<polygon fill="white" stroke="transparent" points="-4,4 -4,-307 454,-307 454,4 -4,4"/>
<!-- 0 -->
<g id="node1" class="node">
<title>0</title>
<path fill="none" stroke="#d85656" stroke-width="2" d="M256,-36C256,-36 193,-36 193,-36 187,-36 181,-30 181,-24 181,-24 181,-12 181,-12 181,-6 187,0 193,0 193,0 256,0 256,0 262,0 268,-6 268,-12 268,-12 268,-24 268,-24 268,-30 262,-36 256,-36"/>
<text text-anchor="middle" x="224.5" y="-14.3" font-family="sans" font-size="14.00">champion</text>
</g>
<!-- 1 -->
<g id="node2" class="node">
<title>1</title>
<path fill="none" stroke="#59d856" stroke-width="2" d="M262,-125C262,-125 187,-125 187,-125 181,-125 175,-119 175,-113 175,-113 175,-84 175,-84 175,-78 181,-72 187,-72 187,-72 262,-72 262,-72 268,-72 274,-78 274,-84 274,-84 274,-113 274,-113 274,-119 268,-125 262,-125"/>
<text text-anchor="middle" x="224.5" y="-109.8" font-family="sans" font-size="14.00">play_match</text>
<text text-anchor="middle" x="224.5" y="-94.8" font-family="sans" font-size="14.00">start: 0</text>
<text text-anchor="middle" x="224.5" y="-79.8" font-family="sans" font-size="14.00">end: 8</text>
</g>
<!-- 1&#45;&gt;0 -->
<g id="edge1" class="edge">
<title>1&#45;&gt;0</title>
<path fill="none" stroke="grey" stroke-width="2" d="M224.5,-71.8C224.5,-63.71 224.5,-54.76 224.5,-46.55"/>
<polygon fill="grey" stroke="grey" stroke-width="2" points="228,-46.33 224.5,-36.33 221,-46.33 228,-46.33"/>
</g>
<!-- 2 -->
<g id="node3" class="node">
<title>2</title>
<path fill="none" stroke="#59d856" stroke-width="2" d="M204,-214C204,-214 129,-214 129,-214 123,-214 117,-208 117,-202 117,-202 117,-173 117,-173 117,-167 123,-161 129,-161 129,-161 204,-161 204,-161 210,-161 216,-167 216,-173 216,-173 216,-202 216,-202 216,-208 210,-214 204,-214"/>
<text text-anchor="middle" x="166.5" y="-198.8" font-family="sans" font-size="14.00">play_match</text>
<text text-anchor="middle" x="166.5" y="-183.8" font-family="sans" font-size="14.00">start: 0</text>
<text text-anchor="middle" x="166.5" y="-168.8" font-family="sans" font-size="14.00">end: 4</text>
</g>
<!-- 2&#45;&gt;1 -->
<g id="edge2" class="edge">
<title>2&#45;&gt;1</title>
<path fill="none" stroke="grey" stroke-width="2" d="M183.59,-160.87C189.26,-152.36 195.67,-142.75 201.7,-133.7"/>
<polygon fill="grey" stroke="grey" stroke-width="2" points="204.7,-135.51 207.33,-125.25 198.87,-131.63 204.7,-135.51"/>
</g>
<!-- 3 -->
<g id="node4" class="node">
<title>3</title>
<path fill="none" stroke="#59d856" stroke-width="2" d="M87,-303C87,-303 12,-303 12,-303 6,-303 0,-297 0,-291 0,-291 0,-262 0,-262 0,-256 6,-250 12,-250 12,-250 87,-250 87,-250 93,-250 99,-256 99,-262 99,-262 99,-291 99,-291 99,-297 93,-303 87,-303"/>
<text text-anchor="middle" x="49.5" y="-287.8" font-family="sans" font-size="14.00">play_match</text>
<text text-anchor="middle" x="49.5" y="-272.8" font-family="sans" font-size="14.00">start: 0</text>
<text text-anchor="middle" x="49.5" y="-257.8" font-family="sans" font-size="14.00">end: 2</text>
</g>
<!-- 3&#45;&gt;2 -->
<g id="edge4" class="edge">
<title>3&#45;&gt;2</title>
<path fill="none" stroke="grey" stroke-width="2" d="M83.97,-249.87C96.36,-240.66 110.48,-230.15 123.5,-220.47"/>
<polygon fill="grey" stroke="grey" stroke-width="2" points="125.93,-223.03 131.87,-214.25 121.76,-217.41 125.93,-223.03"/>
</g>
<!-- 4 -->
<g id="node5" class="node">
<title>4</title>
<path fill="none" stroke="#59d856" stroke-width="2" d="M204,-303C204,-303 129,-303 129,-303 123,-303 117,-297 117,-291 117,-291 117,-262 117,-262 117,-256 123,-250 129,-250 129,-250 204,-250 204,-250 210,-250 216,-256 216,-262 216,-262 216,-291 216,-291 216,-297 210,-303 204,-303"/>
<text text-anchor="middle" x="166.5" y="-287.8" font-family="sans" font-size="14.00">play_match</text>
<text text-anchor="middle" x="166.5" y="-272.8" font-family="sans" font-size="14.00">start: 2</text>
<text text-anchor="middle" x="166.5" y="-257.8" font-family="sans" font-size="14.00">end: 4</text>
</g>
<!-- 4&#45;&gt;2 -->
<g id="edge5" class="edge">
<title>4&#45;&gt;2</title>
<path fill="none" stroke="grey" stroke-width="2" d="M166.5,-249.87C166.5,-241.89 166.5,-232.93 166.5,-224.38"/>
<polygon fill="grey" stroke="grey" stroke-width="2" points="170,-224.25 166.5,-214.25 163,-224.25 170,-224.25"/>
</g>
<!-- 5 -->
<g id="node6" class="node">
<title>5</title>
<path fill="none" stroke="#59d856" stroke-width="2" d="M321,-214C321,-214 246,-214 246,-214 240,-214 234,-208 234,-202 234,-202 234,-173 234,-173 234,-167 240,-161 246,-161 246,-161 321,-161 321,-161 327,-161 333,-167 333,-173 333,-173 333,-202 333,-202 333,-208 327,-214 321,-214"/>
<text text-anchor="middle" x="283.5" y="-198.8" font-family="sans" font-size="14.00">play_match</text>
<text text-anchor="middle" x="283.5" y="-183.8" font-family="sans" font-size="14.00">start: 4</text>
<text text-anchor="middle" x="283.5" y="-168.8" font-family="sans" font-size="14.00">end: 8</text>
</g>
<!-- 5&#45;&gt;1 -->
<g id="edge3" class="edge">
<title>5&#45;&gt;1</title>
<path fill="none" stroke="grey" stroke-width="2" d="M266.12,-160.87C260.35,-152.36 253.83,-142.75 247.69,-133.7"/>
<polygon fill="grey" stroke="grey" stroke-width="2" points="250.47,-131.56 241.96,-125.25 244.68,-135.49 250.47,-131.56"/>
</g>
<!-- 6 -->
<g id="node7" class="node">
<title>6</title>
<path fill="none" stroke="#59d856" stroke-width="2" d="M321,-303C321,-303 246,-303 246,-303 240,-303 234,-297 234,-291 234,-291 234,-262 234,-262 234,-256 240,-250 246,-250 246,-250 321,-250 321,-250 327,-250 333,-256 333,-262 333,-262 333,-291 333,-291 333,-297 327,-303 321,-303"/>
<text text-anchor="middle" x="283.5" y="-287.8" font-family="sans" font-size="14.00">play_match</text>
<text text-anchor="middle" x="283.5" y="-272.8" font-family="sans" font-size="14.00">start: 4</text>
<text text-anchor="middle" x="283.5" y="-257.8" font-family="sans" font-size="14.00">end: 6</text>
</g>
<!-- 6&#45;&gt;5 -->
<g id="edge6" class="edge">
<title>6&#45;&gt;5</title>
<path fill="none" stroke="grey" stroke-width="2" d="M283.5,-249.87C283.5,-241.89 283.5,-232.93 283.5,-224.38"/>
<polygon fill="grey" stroke="grey" stroke-width="2" points="287,-224.25 283.5,-214.25 280,-224.25 287,-224.25"/>
</g>
<!-- 7 -->
<g id="node8" class="node">
<title>7</title>
<path fill="none" stroke="#59d856" stroke-width="2" d="M438,-303C438,-303 363,-303 363,-303 357,-303 351,-297 351,-291 351,-291 351,-262 351,-262 351,-256 357,-250 363,-250 363,-250 438,-250 438,-250 444,-250 450,-256 450,-262 450,-262 450,-291 450,-291 450,-297 444,-303 438,-303"/>
<text text-anchor="middle" x="400.5" y="-287.8" font-family="sans" font-size="14.00">play_match</text>
<text text-anchor="middle" x="400.5" y="-272.8" font-family="sans" font-size="14.00">start: 6</text>
<text text-anchor="middle" x="400.5" y="-257.8" font-family="sans" font-size="14.00">end: 8</text>
</g>
<!-- 7&#45;&gt;5 -->
<g id="edge7" class="edge">
<title>7&#45;&gt;5</title>
<path fill="none" stroke="grey" stroke-width="2" d="M366.03,-249.87C353.64,-240.66 339.52,-230.15 326.5,-220.47"/>
<polygon fill="grey" stroke="grey" stroke-width="2" points="328.24,-217.41 318.13,-214.25 324.07,-223.03 328.24,-217.41"/>
</g>
</g>
</svg>
